# xmcd
#
# Track frame offsets:
#	150
#	6147
#	25960
#	45559
#	61493
#	65157
#	88848
#	109083
#	130926
#	152642
#	176182
#	192302
#	211486
#	217482
#	236935
#	253682
#	274970
#	290971
#
# Disc length: 4115 seconds
#
# Revision: 0
# Processed by: cddbd v1.5.2PL0 Copyright (c) Steve Scherf et al.
# Submitted via: dBpowerAMP V4.0
#
DISCID=2a101112
DTITLE=Slim - Love's Crazy
DYEAR=2008
DGENRE=R&B
TTITLE0=Intro - Psalm 23
TTITLE1=She Got That
TTITLE2=Good Lovin feat. Fabolous and Ryan Leslie
TTITLE3=So Fly feat. Yung Joc
TTITLE4=Baby Yu (Introlude)
TTITLE5=So Gone feat. Faith Evans
TTITLE6=Sweet Baby
TTITLE7=Heels On feat. Yung Berg and Deezo
TTITLE8=Bed Time Stories
TTITLE9=U Got Me (Addicted)
TTITLE10=Don't Say It
TTITLE11=Leave U Alone
TTITLE12=More (Introlude)
TTITLE13=Apologize
TTITLE14=Love's Crazy
TTITLE15=Pretty Kitty
TTITLE16=So Fly R&B Version
TTITLE17=The Way That it Is feat. 8Ball
EXTD=
EXTT0=
EXTT1=
EXTT2=
EXTT3=
EXTT4=
EXTT5=
EXTT6=
EXTT7=
EXTT8=
EXTT9=
EXTT10=
EXTT11=
EXTT12=
EXTT13=
EXTT14=
EXTT15=
EXTT16=
EXTT17=
PLAYORDER=
